<svg data-v-0dd9719b="" version="1.0" xmlns="http://www.w3.org/2000/svg" xmlns:xlink="http://www.w3.org/1999/xlink" width="100%" height="100%" viewBox="0 0 340.000000 250.000000" preserveAspectRatio="xMidYMid meet" color-interpolation-filters="sRGB" style="margin: auto;"> <rect data-v-0dd9719b="" x="0" y="0" width="100%" height="100%" fill="#ffffff" fill-opacity="1" class="background"></rect> <rect data-v-0dd9719b="" x="0" y="0" width="100%" height="100%" fill="url(#watermark)" fill-opacity="1" class="watermarklayer"></rect> <g data-v-0dd9719b="" fill="#0a0619" class="icon-text-wrapper icon-svg-group iconsvg" transform="translate(108.5,51.65875244140625)"><g fill="#fc3a43" class="iconsvg-imagesvg icon_container" transform="translate(0,0)" mask="url(#acd23243-7da2-48ac-99fa-eed90d4f33de)"><rect fill="#0a0619" fill-opacity="0" stroke-width="2" x="0" y="0" width="123" height="123" class="image-rect"></rect> <svg viewBox="0 0 60 60" x="0" y="0" width="123" height="123" class="image-svg-svg bn" style="overflow: visible;"><g hollow-target="iconBnFill" mask="url(#623388bf-4b64-4fc6-b833-0d56632e4880)"><g><svg viewBox="0.11275 0.11275 81.77451 81.77451" xmlns="http://www.w3.org/2000/svg" style="overflow: visible;" width="60" height="60" x="0" y="0" filtersec="colorsf9780686795" filter="url(#mjuDiMjJWpRUKxbnizhEE)"><g transform="scale(1, 1) skewX(0)"><path d="M56.556 6.556l18.888 18.888c8.591 8.591 8.591 22.52 0 31.112L56.556 75.444c-8.591 8.591-22.52 8.591-31.112 0L6.556 56.556c-8.591-8.591-8.591-22.52 0-31.112L25.444 6.556c8.591-8.591 22.52-8.591 31.112 0z" fill="#333" fill-rule="evenodd"></path></g><defs><filter id="mjuDiMjJWpRUKxbnizhEE"><feColorMatrix type="matrix" values="0 0 0 0 0.984375  0 0 0 0 0.2265625  0 0 0 0 0.26171875  0 0 0 1 0"></feColorMatrix></filter></defs></svg></g> <g filter="url(#colors9928983720)"><svg xmlns="http://www.w3.org/2000/svg" xmlns:xlink="http://www.w3.org/1999/xlink" viewBox="0 0 79.91015625 52.6640625" width="41" height="41" x="9.5" y="9.5" class="image-svg-letter"><path transform="translate(-0.421875 51.2578125)" d="M30.09-48.80L46.97-47.60L27.63-20.60L26.72 1.41L10.05 1.41L10.48-20.46L0.42-46.55L18.35-48.80L21.16-33.61L30.09-48.80ZM80.33-49.43L80.33-49.43L78.36-34.59Q77.34-34.88 76.32-34.98Q75.30-35.09 74.29-35.09L74.29-35.09Q71.68-35.09 69.33-34.40Q66.97-33.71 65.16-32.31Q63.35-30.90 62.28-28.79Q61.21-26.68 61.21-23.84L61.21-23.84Q61.21-22.01 61.79-20.67Q62.37-19.34 63.42-18.46Q64.48-17.58 65.92-17.16Q67.36-16.73 69.08-16.73L69.08-16.73Q70.38-16.73 71.79-17.02Q73.20-17.30 74.57-17.75Q75.94-18.21 77.24-18.81Q78.54-19.41 79.63-20.04L79.63-20.04L78.22-3.52Q76.85-2.81 75.25-2.27Q73.65-1.72 71.96-1.32Q70.28-0.91 68.59-0.70Q66.90-0.49 65.36-0.49L65.36-0.49Q60.89-0.49 57.02-2.14Q53.16-3.80 50.31-6.68Q47.46-9.56 45.83-13.48Q44.19-17.40 44.19-21.94L44.19-21.94Q44.19-27.95 45.91-33.28Q47.64-38.60 50.98-42.61Q54.32-46.62 59.26-48.94Q64.20-51.26 70.63-51.26L70.63-51.26Q73.05-51.26 75.60-50.87Q78.15-50.48 80.33-49.43Z"></path></svg></g></g><mask id="623388bf-4b64-4fc6-b833-0d56632e4880"><g fill="white"><svg viewBox="0.11275 0.11275 81.77451 81.77451" xmlns="http://www.w3.org/2000/svg" style="overflow: visible;" width="60" height="60" x="0" y="0" filtersec="colorsf9780686795"><g transform="scale(1, 1) skewX(0)"><path d="M56.556 6.556l18.888 18.888c8.591 8.591 8.591 22.52 0 31.112L56.556 75.444c-8.591 8.591-22.52 8.591-31.112 0L6.556 56.556c-8.591-8.591-8.591-22.52 0-31.112L25.444 6.556c8.591-8.591 22.52-8.591 31.112 0z" fill-rule="evenodd"></path></g><defs></defs></svg></g> <g fill="black"><svg xmlns="http://www.w3.org/2000/svg" xmlns:xlink="http://www.w3.org/1999/xlink" viewBox="0 0 79.91015625 52.6640625" width="41" height="41" x="9.5" y="9.5" class="image-svg-letter"><path transform="translate(-0.421875 51.2578125)" d="M30.09-48.80L46.97-47.60L27.63-20.60L26.72 1.41L10.05 1.41L10.48-20.46L0.42-46.55L18.35-48.80L21.16-33.61L30.09-48.80ZM80.33-49.43L80.33-49.43L78.36-34.59Q77.34-34.88 76.32-34.98Q75.30-35.09 74.29-35.09L74.29-35.09Q71.68-35.09 69.33-34.40Q66.97-33.71 65.16-32.31Q63.35-30.90 62.28-28.79Q61.21-26.68 61.21-23.84L61.21-23.84Q61.21-22.01 61.79-20.67Q62.37-19.34 63.42-18.46Q64.48-17.58 65.92-17.16Q67.36-16.73 69.08-16.73L69.08-16.73Q70.38-16.73 71.79-17.02Q73.20-17.30 74.57-17.75Q75.94-18.21 77.24-18.81Q78.54-19.41 79.63-20.04L79.63-20.04L78.22-3.52Q76.85-2.81 75.25-2.27Q73.65-1.72 71.96-1.32Q70.28-0.91 68.59-0.70Q66.90-0.49 65.36-0.49L65.36-0.49Q60.89-0.49 57.02-2.14Q53.16-3.80 50.31-6.68Q47.46-9.56 45.83-13.48Q44.19-17.40 44.19-21.94L44.19-21.94Q44.19-27.95 45.91-33.28Q47.64-38.60 50.98-42.61Q54.32-46.62 59.26-48.94Q64.20-51.26 70.63-51.26L70.63-51.26Q73.05-51.26 75.60-50.87Q78.15-50.48 80.33-49.43Z"></path></svg></g></mask></svg> <defs><filter id="colors9928983720"><feColorMatrix type="matrix" values="0 0 0 0 0.984375  0 0 0 0 0.2265625  0 0 0 0 0.26171875  0 0 0 1 0" class="icon-fecolormatrix"></feColorMatrix></filter> <filter id="colorsf9780686795"><feColorMatrix type="matrix" values="0 0 0 0 0.99609375  0 0 0 0 0.99609375  0 0 0 0 0.99609375  0 0 0 1 0" class="icon-fecolormatrix"></feColorMatrix></filter> <filter id="colorsb6779220894"><feColorMatrix type="matrix" values="0 0 0 0 0  0 0 0 0 0  0 0 0 0 0  0 0 0 1 0" class="icon-fecolormatrix"></feColorMatrix></filter></defs><rect v-gra="id" width="135" height="135" transform="translate(-6, -6)" style="pointer-events:none;" fill="url(#0zLVLf-SW3QhO7aqhSAFf)"></rect></g> <g transform="translate(60.969999969005585,130)"><g data-gra="path-name" fill-rule="" class="tp-name iconsvg-namesvg" transform="translate(0,0)"><g transform="scale(1)"><g><path d="M0.42-0.68L0.65-0.66 0.38-0.29 0.37 0.02 0.14 0.02 0.15-0.28 0.01-0.65 0.25-0.68 0.29-0.47 0.42-0.68ZM1.07-0.69L1.07-0.69 1.04-0.48Q1.03-0.48 1.01-0.49 1-0.49 0.98-0.49L0.98-0.49Q0.95-0.49 0.92-0.48 0.88-0.47 0.86-0.45 0.83-0.43 0.82-0.4 0.8-0.37 0.8-0.33L0.8-0.33Q0.8-0.31 0.81-0.29 0.82-0.27 0.83-0.26 0.85-0.24 0.87-0.24 0.89-0.23 0.91-0.23L0.91-0.23Q0.93-0.23 0.95-0.24 0.97-0.24 0.99-0.25 1.01-0.25 1.02-0.26 1.04-0.27 1.06-0.28L1.06-0.28 1.04-0.05Q1.02-0.04 1-0.03 0.98-0.02 0.95-0.02 0.93-0.01 0.9-0.01 0.88-0.01 0.86-0.01L0.86-0.01Q0.8-0.01 0.74-0.03 0.69-0.05 0.65-0.09 0.61-0.13 0.59-0.19 0.57-0.24 0.57-0.3L0.57-0.3Q0.57-0.39 0.59-0.46 0.61-0.54 0.66-0.59 0.71-0.65 0.78-0.68 0.84-0.71 0.93-0.71L0.93-0.71Q0.97-0.71 1-0.71 1.04-0.7 1.07-0.69Z" transform="translate(-0.010000000707805157, 0.7099999785423279)"></path></g> <!----> <!----> <!----> <!----> <!----> <!----> <!----></g></g> <g data-gra="path-slogan" fill-rule="" class="tp-slogan iconsvg-slogansvg" fill="#0a0619" transform="translate(-35.81999844312668,7.7299999594688416)"><!----> <!----> <g transform="scale(1, 1)"><g transform="scale(1)"><path d="M2.06-5.06L6.56-5.06L6.56-8.58L7.73-8.58L7.73 0L6.56 0L6.56-3.98L2.06-3.98L2.06 0L0.89 0L0.89-8.58L2.06-8.58L2.06-5.06ZM16.31-4.27L16.31-4.27Q16.13-7.64 13.31-7.83L13.31-7.83Q10.45-7.69 10.31-4.27L10.31-4.27Q10.45-0.94 13.31-0.80L13.31-0.80Q16.13-0.98 16.31-4.27ZM17.48-4.27L17.48-4.27Q17.20 0 13.31 0.14L13.31 0.14Q9.38 0 9.09-4.27L9.09-4.27Q9.33-8.72 13.31-8.81L13.31-8.81Q17.20-8.67 17.48-4.27ZM20.25-8.58L24.56-1.64L24.56-8.58L25.69-8.58L25.69 0L24.38 0L20.02-6.94L19.97-6.94L19.97 0L18.84 0L18.84-8.58L20.25-8.58ZM33.89-3.61L31.27-3.61L31.27-4.59L35.02-4.59L35.02 0L34.27 0L33.98-1.08Q33 0.09 31.17 0.14L31.17 0.14Q29.44 0.14 28.50-0.75L28.50-0.75Q27.09-2.06 27.14-4.36L27.14-4.36Q27.47-8.63 31.22-8.81L31.22-8.81Q34.41-8.63 34.88-6L34.88-6L33.75-6Q33.28-7.78 31.17-7.83L31.17-7.83Q28.50-7.64 28.36-4.31L28.36-4.31Q28.36-0.75 31.22-0.75L31.22-0.75Q32.25-0.75 33-1.31L33-1.31Q33.94-2.06 33.89-3.61L33.89-3.61ZM42.66-4.31L41.30-3.05L41.30 0L40.13 0L40.13-8.58L41.30-8.58L41.30-4.41L45.47-8.58L47.11-8.58L43.50-5.11L47.20 0L45.66 0L42.66-4.31ZM54.89-4.27L54.89-4.27Q54.70-7.64 51.89-7.83L51.89-7.83Q49.03-7.69 48.89-4.27L48.89-4.27Q49.03-0.94 51.89-0.80L51.89-0.80Q54.70-0.98 54.89-4.27ZM56.06-4.27L56.06-4.27Q55.78 0 51.89 0.14L51.89 0.14Q47.95 0 47.67-4.27L47.67-4.27Q47.91-8.72 51.89-8.81L51.89-8.81Q55.78-8.67 56.06-4.27ZM58.83-8.58L63.14-1.64L63.14-8.58L64.27-8.58L64.27 0L62.95 0L58.59-6.94L58.55-6.94L58.55 0L57.42 0L57.42-8.58L58.83-8.58ZM72.47-3.61L69.84-3.61L69.84-4.59L73.59-4.59L73.59 0L72.84 0L72.56-1.08Q71.58 0.09 69.75 0.14L69.75 0.14Q68.02 0.14 67.08-0.75L67.08-0.75Q65.67-2.06 65.72-4.36L65.72-4.36Q66.05-8.63 69.80-8.81L69.80-8.81Q72.98-8.63 73.45-6L73.45-6L72.33-6Q71.86-7.78 69.75-7.83L69.75-7.83Q67.08-7.64 66.94-4.31L66.94-4.31Q66.94-0.75 69.80-0.75L69.80-0.75Q70.83-0.75 71.58-1.31L71.58-1.31Q72.52-2.06 72.47-3.61L72.47-3.61Z" transform="translate(-0.890625, 8.8125)"></path></g></g></g></g></g><defs v-gra="od"></defs><defs v-gra="id"><filter id="68d9e901-dbb6-43db-bf67-0395f1c970bc" filterUnits="userSpaceOnUse"><feColorMatrix type="matrix" values="0 0 0 0 0.99609375  0 0 0 0 0.99609375  0 0 0 0 0.99609375  0 0 0 1 0"></feColorMatrix></filter><linearGradient x1="0" y1="1" x2="0" y2="0" id="0zLVLf-SW3QhO7aqhSAFf"><stop offset="0%" stop-color="#ff0844"></stop><stop offset="100%" stop-color="#ffb199"></stop></linearGradient><filter id="42443b3f1de60f6b6fd3b6a9844b4764" filterUnits="objectBoundingBox"><feColorMatrix type="matrix" values="0 0 0 0 0.99609375  0 0 0 0 0.99609375  0 0 0 0 0.99609375  0 0 0 1 0"></feColorMatrix></filter></defs><mask v-gra="im" id="acd23243-7da2-48ac-99fa-eed90d4f33de"><g fill="#fc3a43" class="iconsvg-imagesvg icon_container" filter="url(#68d9e901-dbb6-43db-bf67-0395f1c970bc)"><rect fill="#0a0619" fill-opacity="0" stroke-width="2" x="0" y="0" width="123" height="123" class="image-rect"></rect> <svg viewBox="0 0 60 60" x="0" y="0" width="123" height="123" class="image-svg-svg bn" style="overflow: visible;"><g hollow-target="iconBnFill" mask="url(#623388bf-4b64-4fc6-b833-0d56632e4880)"><g><svg viewBox="0.11275 0.11275 81.77451 81.77451" xmlns="http://www.w3.org/2000/svg" style="overflow: visible;" width="60" height="60" x="0" y="0" filtersec="colorsf9780686795"><g transform="scale(1, 1) skewX(0)"><path d="M56.556 6.556l18.888 18.888c8.591 8.591 8.591 22.52 0 31.112L56.556 75.444c-8.591 8.591-22.52 8.591-31.112 0L6.556 56.556c-8.591-8.591-8.591-22.52 0-31.112L25.444 6.556c8.591-8.591 22.52-8.591 31.112 0z" fill="#333" fill-rule="evenodd"></path></g><defs><filter id="mjuDiMjJWpRUKxbnizhEE"><feColorMatrix type="matrix" values="0 0 0 0 0.984375  0 0 0 0 0.2265625  0 0 0 0 0.26171875  0 0 0 1 0"></feColorMatrix></filter></defs></svg></g> <g><svg xmlns="http://www.w3.org/2000/svg" xmlns:xlink="http://www.w3.org/1999/xlink" viewBox="0 0 79.91015625 52.6640625" width="41" height="41" x="9.5" y="9.5" class="image-svg-letter"><path transform="translate(-0.421875 51.2578125)" d="M30.09-48.80L46.97-47.60L27.63-20.60L26.72 1.41L10.05 1.41L10.48-20.46L0.42-46.55L18.35-48.80L21.16-33.61L30.09-48.80ZM80.33-49.43L80.33-49.43L78.36-34.59Q77.34-34.88 76.32-34.98Q75.30-35.09 74.29-35.09L74.29-35.09Q71.68-35.09 69.33-34.40Q66.97-33.71 65.16-32.31Q63.35-30.90 62.28-28.79Q61.21-26.68 61.21-23.84L61.21-23.84Q61.21-22.01 61.79-20.67Q62.37-19.34 63.42-18.46Q64.48-17.58 65.92-17.16Q67.36-16.73 69.08-16.73L69.08-16.73Q70.38-16.73 71.79-17.02Q73.20-17.30 74.57-17.75Q75.94-18.21 77.24-18.81Q78.54-19.41 79.63-20.04L79.63-20.04L78.22-3.52Q76.85-2.81 75.25-2.27Q73.65-1.72 71.96-1.32Q70.28-0.91 68.59-0.70Q66.90-0.49 65.36-0.49L65.36-0.49Q60.89-0.49 57.02-2.14Q53.16-3.80 50.31-6.68Q47.46-9.56 45.83-13.48Q44.19-17.40 44.19-21.94L44.19-21.94Q44.19-27.95 45.91-33.28Q47.64-38.60 50.98-42.61Q54.32-46.62 59.26-48.94Q64.20-51.26 70.63-51.26L70.63-51.26Q73.05-51.26 75.60-50.87Q78.15-50.48 80.33-49.43Z"></path></svg></g></g><mask id="623388bf-4b64-4fc6-b833-0d56632e4880"><g fill="white"><svg viewBox="0.11275 0.11275 81.77451 81.77451" xmlns="http://www.w3.org/2000/svg" style="overflow: visible;" width="60" height="60" x="0" y="0" filtersec="colorsf9780686795"><g transform="scale(1, 1) skewX(0)"><path d="M56.556 6.556l18.888 18.888c8.591 8.591 8.591 22.52 0 31.112L56.556 75.444c-8.591 8.591-22.52 8.591-31.112 0L6.556 56.556c-8.591-8.591-8.591-22.52 0-31.112L25.444 6.556c8.591-8.591 22.52-8.591 31.112 0z" fill-rule="evenodd"></path></g><defs></defs></svg></g> <g fill="black"><svg xmlns="http://www.w3.org/2000/svg" xmlns:xlink="http://www.w3.org/1999/xlink" viewBox="0 0 79.91015625 52.6640625" width="41" height="41" x="9.5" y="9.5" class="image-svg-letter"><path transform="translate(-0.421875 51.2578125)" d="M30.09-48.80L46.97-47.60L27.63-20.60L26.72 1.41L10.05 1.41L10.48-20.46L0.42-46.55L18.35-48.80L21.16-33.61L30.09-48.80ZM80.33-49.43L80.33-49.43L78.36-34.59Q77.34-34.88 76.32-34.98Q75.30-35.09 74.29-35.09L74.29-35.09Q71.68-35.09 69.33-34.40Q66.97-33.71 65.16-32.31Q63.35-30.90 62.28-28.79Q61.21-26.68 61.21-23.84L61.21-23.84Q61.21-22.01 61.79-20.67Q62.37-19.34 63.42-18.46Q64.48-17.58 65.92-17.16Q67.36-16.73 69.08-16.73L69.08-16.73Q70.38-16.73 71.79-17.02Q73.20-17.30 74.57-17.75Q75.94-18.21 77.24-18.81Q78.54-19.41 79.63-20.04L79.63-20.04L78.22-3.52Q76.85-2.81 75.25-2.27Q73.65-1.72 71.96-1.32Q70.28-0.91 68.59-0.70Q66.90-0.49 65.36-0.49L65.36-0.49Q60.89-0.49 57.02-2.14Q53.16-3.80 50.31-6.68Q47.46-9.56 45.83-13.48Q44.19-17.40 44.19-21.94L44.19-21.94Q44.19-27.95 45.91-33.28Q47.64-38.60 50.98-42.61Q54.32-46.62 59.26-48.94Q64.20-51.26 70.63-51.26L70.63-51.26Q73.05-51.26 75.60-50.87Q78.15-50.48 80.33-49.43Z"></path></svg></g></mask></svg> <defs><filter id="colors9928983720"><feColorMatrix type="matrix" values="0 0 0 0 0.984375  0 0 0 0 0.2265625  0 0 0 0 0.26171875  0 0 0 1 0" class="icon-fecolormatrix"></feColorMatrix></filter> <filter id="colorsf9780686795"><feColorMatrix type="matrix" values="0 0 0 0 0.99609375  0 0 0 0 0.99609375  0 0 0 0 0.99609375  0 0 0 1 0" class="icon-fecolormatrix"></feColorMatrix></filter> <filter id="colorsb6779220894"><feColorMatrix type="matrix" values="0 0 0 0 0  0 0 0 0 0  0 0 0 0 0  0 0 0 1 0" class="icon-fecolormatrix"></feColorMatrix></filter></defs></g></mask></svg>